HIERARCHY
ROOT hip
{
	OFFSET 0.000000 0.000000 0.000000
	CHANNELS 6 Xposition Yposition Zposition Xrotation Zrotation Yrotation 
	JOINT abdomen
	{
		OFFSET 0.000000 3.422050 0.000000
		CHANNELS 3 Xrotation Zrotation Yrotation 
		JOINT chest
		{
			OFFSET 0.000000 8.486693 -0.684411
			CHANNELS 3 Xrotation Zrotation Yrotation 
			JOINT neck
			{
				OFFSET 0.000000 10.266162 -0.273764
				CHANNELS 3 Xrotation Zrotation Yrotation 
				JOINT head
				{
					OFFSET 0.000000 3.148285 0.000000
					CHANNELS 3 Xrotation Zrotation Yrotation 
					End Site
					{
						OFFSET 0.000000 3.148289 0.000000
					}
				}
			}
			JOINT lCollar
			{
				OFFSET 3.422053 6.707223 -0.821293
				CHANNELS 3 Yrotation Zrotation Xrotation 
				JOINT lShldr
				{
					OFFSET 3.285171 0.000000 0.000000
					CHANNELS 3 Zrotation Yrotation Xrotation 
					JOINT lForeArm
					{
						OFFSET 10.129278 0.000000 0.000000
						CHANNELS 3 Yrotation Zrotation Xrotation 
						JOINT lHand
						{
							OFFSET 8.486692 0.000000 0.000000
							CHANNELS 3 Zrotation Yrotation Xrotation 
							End Site
							{
								OFFSET 4.106464 0.000000 0.000000
							}
						}
					}
				}
			}
			JOINT rCollar
			{
				OFFSET -3.558935 6.707223 -0.821293
				CHANNELS 3 Yrotation Zrotation Xrotation 
				JOINT rShldr
				{
					OFFSET -3.148289 0.000000 0.000000
					CHANNELS 3 Zrotation Yrotation Xrotation 
					JOINT rForeArm
					{
						OFFSET -10.266159 0.000000 0.000000
						CHANNELS 3 Yrotation Zrotation Xrotation 
						JOINT rHand
						{
							OFFSET -8.349810 0.000000 0.000000
							CHANNELS 3 Zrotation Yrotation Xrotation 
							End Site
							{
								OFFSET -4.106464 0.000000 0.000000
							}
						}
					}
				}
			}
		}
	}
	JOINT lThigh
	{
		OFFSET 5.338403 -1.642589 1.368821
		CHANNELS 3 Xrotation Zrotation Yrotation 
		JOINT lShin
		{
			OFFSET -2.053232 -20.121670 0.000000
			CHANNELS 3 Xrotation Zrotation Yrotation 
			JOINT lFoot
			{
				OFFSET 0.000000 -19.300380 -1.231939
				CHANNELS 3 Xrotation Yrotation Zrotation 
				End Site
				{
					OFFSET 0.000000 -2.463878 4.653993
				}
			}
		}
	}
	JOINT rThigh
	{
		OFFSET -5.338403 -1.642589 1.368821
		CHANNELS 3 Xrotation Zrotation Yrotation 
		JOINT rShin
		{
			OFFSET 2.053232 -20.121670 0.000000
			CHANNELS 3 Xrotation Zrotation Yrotation 
			JOINT rFoot
			{
				OFFSET 0.000000 -19.300380 -1.231939
				CHANNELS 3 Xrotation Yrotation Zrotation 
				End Site
				{
					OFFSET 0.000000 -2.463878 4.653993
				}
			}
		}
	}
}
MOTION
Frames: 16
Frame Time: 0.050000
0.000000 43.528500 0.000000 0.000000 0.000000 0.000000 0.000000 0.000000 0.000000 0.000000 0.000000 0.000000 0.000000 0.000000 0.000000 0.000000 0.000000 0.000000 0.000000 0.000000 0.000000 0.000000 0.000000 0.000000 0.000000 0.000000 0.000000 0.000000 0.000000 0.000000 0.000000 0.000000 0.000000 0.000000 0.000000 0.000000 0.000000 0.000000 0.000000 0.000000 0.000000 0.000000 0.000000 0.000000 0.000000 0.000000 0.000000 0.000000 0.000000 0.000000 0.000000 0.000000 0.000000 0.000000 0.000000 0.000000 0.000000 0.000000 0.000000 0.000000 
13.904301 7.817051 -18.457973 89.999916 13.010925 -90.015808 -8.303343 -0.910088 -1.064783 1.559543 11.922884 -0.605488 27.957924 -0.011877 -0.002957 19.355743 -0.040526 -0.001590 -43.868641 -9.462260 -15.036201 -42.702751 -15.648255 -16.715427 -65.516960 27.836958 5.615854 0.000000 0.000000 0.000000 34.875683 -25.137663 3.085812 21.041325 34.024757 -22.885698 80.979782 -38.771664 -45.470371 44.535278 -8.695330 17.783169 -73.033417 -0.954112 2.305635 44.548431 3.750518 0.343827 8.895246 0.944500 2.647081 -29.303162 8.940757 -1.118480 24.322210 4.970604 -21.643417 34.972610 -0.070218 -2.172443 
13.904301 7.817051 -18.384960 89.999916 13.010922 -90.015808 -8.303343 -0.910088 -1.064783 2.020986 11.922907 -0.605299 26.806665 -0.011914 -0.002839 17.369240 -0.040499 -0.001688 -43.392284 -9.283078 -15.073134 -43.074768 -15.889593 -16.563417 -65.803696 27.699984 5.750256 0.166552 -0.136652 0.086828 34.300201 -25.327765 2.593693 21.388569 34.314056 -22.643101 81.550163 -38.609756 -45.112076 44.351509 -8.651706 17.838068 -73.033417 -0.954112 2.305636 44.195126 3.680988 0.325607 8.895246 0.944500 2.647081 -28.835222 8.939528 -1.000068 23.378502 4.972960 -21.746864 35.425171 -0.141001 -2.308725 
13.904301 7.817051 -18.311945 89.999916 13.010928 -90.015800 -8.303343 -0.910088 -1.064783 2.482511 11.922930 -0.605110 25.654125 -0.011948 -0.002720 15.376069 -0.040476 -0.001787 -42.915958 -9.104167 -15.111570 -43.447948 -16.130011 -16.409565 -66.089714 27.562407 5.883721 0.332905 -0.273562 0.173262 33.721851 -25.513433 2.098563 21.738550 34.602169 -22.397503 82.118073 -38.445042 -44.756584 44.167805 -8.607910 17.892822 -73.033409 -0.954112 2.305635 43.841839 3.611340 0.307816 8.895246 0.944500 2.647081 -28.367195 8.937337 -0.881648 22.434093 4.973619 -21.850422 35.877644 -0.212871 -2.444469 
13.904301 7.817051 -18.238932 89.999916 13.010925 -90.015808 -8.303343 -0.910088 -1.064783 2.944103 11.922947 -0.604921 24.500536 -0.011979 -0.002601 13.377420 -0.040456 -0.001887 -42.439655 -8.925545 -15.151500 -43.822308 -16.369492 -16.253881 -66.375038 27.424240 6.016254 0.499060 -0.410727 0.259303 33.140697 -25.694603 1.600492 22.091295 34.889069 -22.148876 82.683456 -38.277573 -44.403969 43.984154 -8.563938 17.947430 -73.033417 -0.954112 2.305635 43.488560 3.541577 0.290456 8.895246 0.944500 2.647081 -27.899122 8.934195 -0.763233 21.489111 4.972576 -21.954041 36.330032 -0.285823 -2.579665 
13.904301 7.817051 -18.165916 89.999916 13.010925 -90.015808 -8.303343 -0.910089 -1.064784 3.405748 11.922968 -0.604732 23.346123 -0.012008 -0.002481 11.374482 -0.040440 -0.001989 -41.963390 -8.747230 -15.192914 -44.197849 -16.608013 -16.096357 -66.659645 27.285475 6.147846 0.665016 -0.548144 0.344950 32.556843 -25.871246 1.099556 22.446827 35.174725 -21.897202 83.246246 -38.107342 -44.054226 43.800568 -8.519793 18.001888 -73.033424 -0.954112 2.305636 43.135307 3.471704 0.273526 8.895246 0.944500 2.647081 -27.430994 8.930094 -0.644836 20.543678 4.969827 -22.057659 36.782295 -0.359849 -2.714297 
13.904301 7.817051 -18.092903 89.999916 13.010925 -90.015808 -8.303343 -0.910088 -1.064783 3.867430 11.922981 -0.604542 22.191130 -0.012035 -0.002360 9.368470 -0.040427 -0.002090 -41.487167 -8.569244 -15.235811 -44.574570 -16.845556 -15.936998 -66.943558 27.146130 6.278507 0.830775 -0.685812 0.430203 31.970333 -26.043287 0.595827 22.805183 35.459114 -21.642456 83.806480 -37.934441 -43.707424 43.617035 -8.475475 18.056200 -73.033401 -0.954112 2.305635 42.782089 3.401725 0.257030 8.895245 0.944500 2.647081 -26.962849 8.925037 -0.526469 19.597946 4.965375 -22.161270 37.234436 -0.434942 -2.848353 
13.904301 7.817051 -18.019888 89.999916 13.010925 -90.015808 -8.303343 -0.910088 -1.064783 4.329134 11.922997 -0.604353 21.035772 -0.012060 -0.002239 7.360616 -0.040417 -0.002193 -41.011005 -8.391608 -15.280185 -44.952469 -17.082098 -15.775798 -67.226753 27.006205 6.408228 0.996337 -0.823728 0.515061 31.381254 -26.210688 0.089387 23.166374 35.742203 -21.384604 84.364067 -37.758858 -43.363567 43.433563 -8.430983 18.110353 -73.033417 -0.954112 2.305635 42.428902 3.331643 0.240966 8.895246 0.944500 2.647081 -26.494699 8.919027 -0.408143 18.652037 4.959219 -22.264807 37.686424 -0.511093 -2.981822 
13.904302 7.817051 -17.946875 89.999916 13.010925 -90.015808 -8.303343 -0.910088 -1.064783 4.790847 11.923012 -0.604163 19.880306 -0.012082 -0.002117 5.352139 -0.040412 -0.002295 -40.534908 -8.214337 -15.326030 -45.331551 -17.317619 -15.612759 -67.509262 26.865709 6.537014 1.161700 -0.961888 0.599523 30.789690 -26.373405 -0.419685 23.530432 36.023960 -21.123623 84.918976 -37.580643 -43.022701 43.250168 -8.386322 18.164366 -73.033417 -0.954112 2.305635 42.075752 3.261463 0.225337 8.895246 0.944500 2.647081 -26.026564 8.912060 -0.289871 17.706083 4.951359 -22.368233 38.138245 -0.588297 -3.114689 
13.904302 7.817051 -17.873859 89.999916 13.010922 -90.015808 -8.303343 -0.910088 -1.064783 5.252552 11.923025 -0.603973 18.724957 -0.012101 -0.001995 3.344282 -0.040410 -0.002398 -40.058884 -8.037453 -15.373339 -45.711815 -17.552099 -15.447878 -67.791046 26.724659 6.664862 1.326867 -1.100292 0.683590 30.195734 -26.531382 -0.931300 23.897381 36.304356 -20.859491 85.471222 -37.399830 -42.684834 43.066830 -8.341490 18.218224 -73.033417 -0.954112 2.305636 41.722660 3.191190 0.210142 8.895246 0.944500 2.647081 -25.558456 8.904139 -0.171665 16.760227 4.941801 -22.471512 38.589882 -0.666544 -3.246943 
13.904302 7.817051 -17.800846 89.999916 13.010925 -90.015808 -8.303343 -0.910089 -1.064784 5.714235 11.923037 -0.603783 17.569956 -0.012118 -0.001873 1.338273 -0.040411 -0.002501 -39.582958 -7.860976 -15.422110 -46.093273 -17.785521 -15.281169 -68.072136 26.583050 6.791771 1.491836 -1.238934 0.767260 29.599468 -26.684589 -1.445373 24.267246 36.583363 -20.592186 86.020767 -37.216476 -42.350033 42.883545 -8.296485 18.271925 -73.033424 -0.954112 2.305636 41.369617 3.120826 0.195383 8.895246 0.944500 2.647081 -25.090408 8.895267 -0.053537 15.814594 4.930548 -22.574589 39.041321 -0.745827 -3.378571 
13.904302 7.817051 -17.727831 89.999916 13.010925 -90.015808 -8.303343 -0.910088 -1.064783 6.175879 11.923045 -0.603593 16.415543 -0.012133 -0.001750 -0.664664 -0.040416 -0.002603 -39.107113 -7.684922 -15.472327 -46.475899 -18.017853 -15.112606 -68.352509 26.440889 6.917741 1.656608 -1.377815 0.850533 29.000971 -26.832964 -1.961814 24.640062 36.860966 -20.321692 86.567558 -37.030586 -42.018280 42.700340 -8.251315 18.325483 -73.033417 -0.954112 2.305635 41.016628 3.050376 0.181059 8.895246 0.944500 2.647081 -24.622425 8.885439 0.064501 14.869324 4.917606 -22.677433 39.492558 -0.826137 -3.509562 
13.904302 7.817051 -17.654818 89.999916 13.010925 -90.015808 -8.303343 -0.910088 -1.064783 6.637473 11.923056 -0.603403 15.261950 -0.012145 -0.001627 -2.663315 -0.040425 -0.002705 -38.631390 -7.509315 -15.523995 -46.859741 -18.249094 -14.942223 -68.632195 26.298187 7.042776 1.821183 -1.516929 0.933410 28.400341 -26.976482 -2.480534 25.015831 37.137108 -20.047962 87.111580 -36.842205 -41.689606 42.517200 -8.205973 18.378880 -73.033417 -0.954112 2.305635 40.663708 2.979844 0.167173 8.895246 0.944500 2.647081 -24.154531 8.874662 0.182437 13.924539 4.902983 -22.779997 39.943542 -0.907466 -3.639902 
13.904302 7.817051 -17.581802 89.999916 13.010925 -90.015808 -8.303343 -0.910088 -1.064783 7.098999 11.923063 -0.603213 14.109417 -0.012154 -0.001504 -4.656484 -0.040437 -0.002806 -38.155773 -7.334167 -15.577095 -47.244759 -18.479214 -14.770000 -68.911140 26.154947 7.166869 1.985562 -1.656277 1.015888 27.797676 -27.115101 -3.001436 25.394596 37.411781 -19.770998 87.652840 -36.651371 -41.364037 42.334129 -8.160468 18.432129 -73.033417 -0.954112 2.305635 40.310856 2.909234 0.153724 8.895245 0.944500 2.647081 -23.686745 8.862936 0.300258 12.980379 4.886686 -22.882236 40.394299 -0.989805 -3.769582 
13.904302 7.817051 -17.508789 89.999916 13.010925 -90.015808 -8.303343 -0.910088 -1.064783 7.560441 11.923068 -0.603023 12.958158 -0.012162 -0.001381 -6.642990 -0.040453 -0.002907 -37.680290 -7.159505 -15.631631 -47.630947 -18.708183 -14.595942 -69.189400 26.011177 7.290028 2.149745 -1.795853 1.097969 27.193066 -27.248777 -3.524422 25.776377 37.684948 -19.490761 88.191284 -36.458134 -41.041595 42.151127 -8.114793 18.485220 -73.033401 -0.954112 2.305635 39.958084 2.838551 0.140713 8.895246 0.944500 2.647081 -23.219082 8.850262 0.417954 12.036979 4.868729 -22.984123 40.844780 -1.073145 -3.898587 
13.904302 7.817051 -17.576588 89.999916 13.010925 -90.015808 -8.303343 -0.910088 -1.064783 7.160529 11.923064 -0.603188 14.027136 -0.012155 -0.001495 -4.798611 -0.040438 -0.002813 -38.121815 -7.321677 -15.580946 -47.272293 -18.495602 -14.757625 -68.948296 26.135809 7.183346 2.007465 -1.674873 1.026856 27.754555 -27.124813 -3.038724 25.421766 37.431339 -19.751085 87.691383 -36.637650 -41.340908 42.309727 -8.154387 18.439217 -73.033417 -0.954112 2.305635 40.263824 2.899815 0.151964 8.895246 0.944500 2.647081 -23.624386 8.861301 0.315959 12.912969 4.885460 -22.889534 40.454384 -1.000859 -3.786822 
